<svg width="60" height="240">
  <g transform="translate(0,0)">
    <path d="M10,60 Q15,15 30,5 Q 45,15 50,60 Z" fill="white" stroke="black" stroke-width="5" />
  </g>
  <g transform="translate(0,60)">
    <rect x="10" y="0" width="40" height="60" fill="white" stroke="black" stroke-width="5" />
  </g>
  <g transform="translate(0,120)">
    <rect x="10" y="0" width="40" height="60" fill="white" stroke="black" stroke-width="5" />
  </g>
  <g transform="translate(0,180)">
    <path d="M10,0 v40 q0,10 5,10 h30 q5,0 5,-10 v-40 Z" fill="white" stroke="black" stroke-width="5" />
  </g>

  <g transform="translate(0,0)">
    <g transform="translate(30,50)">
      <g transform="translate(-10,-10)">
        <rect x="7" y="-25" width="6" height="25" fill="rgb(125,125,125)" stroke="black" stroke-width="2" />
        <path d="M5,0 l-5,4 v10 h20 v-10 l-5,-4 z" fill="rgb(50,50,50)" stroke="black" stroke-width="3" />
      </g>
    </g>
  </g>
  <g transform="translate(0,60)">
    <g transform="translate(30,35)">
      <path d="M-15,-5 l5,-25 h20 l5,25 v10 l-5,15 h-20 l-5,-15 Z" fill="black" stroke="black" stroke-width="3" />
      <rect x="-10" y="-30" width="20" height="50" fill="rgb(125,125,125)" stroke="black" stroke-width="3" />
      <rect x="-10" y="-30" width="20" height="10" fill="rgb(50,50,50)" stroke="black" stroke-width="3" />
      <path d="M-15,-5 l5,-5 h20 l5,5 v10 l-5,5 h-20 l-5,-5 Z" fill="white" stroke="black" stroke-width="3" />
      <g transform="scale(1,1)">
        <path d="M3,-8 q0,10 10,10" fill="black" stroke="none" />
        <line x1="8" x2="11" y1="-3" y2="-6" stroke="black" stroke-width="2" />
      </g>
      <g transform="scale(-1,-1)">
        <path d="M3,-8 q0,10 10,10" fill="black" stroke="none" />
        <line x1="8" x2="11" y1="-3" y2="-6" stroke="black" stroke-width="2" />
      </g>
      <circle cx="0" cy="0" r="3" fill="black" stroke="none" />
      <line x1="-8" x2="8" y1="-8" y2="8" stroke="black" stroke-width="2" />
    </g>
  </g>
  <g transform="translate(0,120)">
    <g transform="translate(30,30)">
      <g transform="translate(-15,-20)">
        <rect x="0" y="0" width="30" height="40" fill="rgb(50,50,50)" stroke="black" stroke-width="3" />
        <g transform="translate(12,0)">
          <g transform="translate(-10,0)">
            <rect x="0" y="0" width="6" height="6" fill="white" stroke="black" stroke-width="1" />
            <line x1="0" x2="6" y1="0" y2="0" fill="white" stroke="black" stroke-width="1" />
            <line x1="0" x2="6" y1="2" y2="2" fill="white" stroke="black" stroke-width="1" />
            <line x1="0" x2="6" y1="4" y2="4" fill="white" stroke="black" stroke-width="1" />
            <line x1="0" x2="6" y1="6" y2="6" fill="white" stroke="black" stroke-width="1" />
          </g>
          <g transform="translate(10,0)">
            <rect x="0" y="0" width="6" height="6" fill="white" stroke="black" stroke-width="1" />
            <line x1="0" x2="6" y1="0" y2="0" fill="white" stroke="black" stroke-width="1" />
            <line x1="0" x2="6" y1="2" y2="2" fill="white" stroke="black" stroke-width="1" />
            <line x1="0" x2="6" y1="4" y2="4" fill="white" stroke="black" stroke-width="1" />
            <line x1="0" x2="6" y1="6" y2="6" fill="white" stroke="black" stroke-width="1" />
          </g>
        </g>
        <g transform="translate(15,25)">
          <circle cx="0" cy="0" r="15" fill="rgb(125,125,125)" stroke="black" stroke-width="1" />
          <line x1="-3" x2="-3" y1="-4" y2="4" fill="white" stroke="black" stroke-width="2" />
          <line x1="3" x2="3" y1="-4" y2="4" fill="white" stroke="black" stroke-width="2" />
          <line x1="-3" x2="3" y1="0" y2="0" fill="white" stroke="black" stroke-width="2" />
          <g transform="translate(-15,0)">
            <line x1="0" x2="5" y1="0" y2="0" fill="white" stroke="black" stroke-width="2" />
          </g>
          <g transform="translate(15,0)">
            <line x1="-5" x2="0" y1="0" y2="0" fill="white" stroke="black" stroke-width="2" />
          </g>
          <g transform="translate(0,-15)">
            <line x1="0" x2="0" y1="0" y2="5" fill="white" stroke="black" stroke-width="2" />
          </g>
          <g transform="translate(0,15)">
            <line x1="0" x2="0" y1="-5" y2="0" fill="white" stroke="black" stroke-width="2" />
          </g>
        </g>
      </g>
    </g>
  </g>
  <g transform="translate(0,180)">
    <g transform="translate(30,40)">
      <g transform="translate(-15,-10)">
        <path d="M5,0 l-5,-4 v-15 q0,-5 5,-5 h20 q5,0 5,5 v15 l-5,4 z" fill="rgb(50,50,50)" stroke="black" stroke-width="3" />
        <rect x="7" y="-10" width="6" height="25" fill="rgb(125,125,125)" stroke="black" stroke-width="2" />
        <rect x="17" y="-10" width="6" height="25" fill="rgb(125,125,125)" stroke="black" stroke-width="2" />
      </g>
    </g>
  </g>
</svg>
