<svg width="60" height="300">
  <g transform="translate(0,0)">
    <path d="M5,60 v-40 q0,-10 5,-10 h25 q5,0 5,10 v40 z" fill="white" stroke="black" stroke-width="5" />
  </g>
  <g transform="translate(0,60)">
    <path d="M5,60 v-60 h35 l15,30 v30 z" fill="white" stroke="black" stroke-width="5" />
  </g>
  <g transform="translate(0,120)">
    <rect x="5" y="0" width="50" height="60" fill="white" stroke="black" stroke-width="5" />
  </g>
  <g transform="translate(0,180)">
    <path d="M5,0 v60 h35 l15,-30 v-30 z" fill="white" stroke="black" stroke-width="5" />
  </g>
  <g transform="translate(0,240)">
    <path d="M5,0 v40 q0,10 5,10 h25 q5,0 5,-10 v-40 z" fill="white" stroke="black" stroke-width="5" />
  </g>"

  <g transform="translate(0,O)">
    <g transform="translate(30,30)">
      <g transform="scale(1,1)">
        <g transform="translate(-30,-30)">
          <path d="M10,60 v-43 q10,-5 20,0 v43 Z" stroke="none" fill="black" />
          <path d="M12,60 v-40" stroke="white" stroke-width="1" fill="none" />
          <path d="M28,60 v-40" stroke="white" stroke-width="1" fill="none" />
          <path d="M20,60 v-43" stroke="white" stroke-width="1" stroke-dasharray="2,2" fill="none" />
        </g>
      </g>
    </g>
  </g>
  <g transform="translate(0,60)">
    <g transform="translate(30,30)">
      <g transform="scale(1,1)">
        <g transform="translate(-30,-30)">
          <path d="M10,0 h20 v10 h10 l10,20 v10 h-10 v-10 h-10 v30 h-20 Z" stroke="none" fill="black" />
          <path d="M12,60 v-60" stroke="white" stroke-width="1" fill="none" />
          <path d="M28,60 v-60" stroke="white" stroke-width="1" fill="none" />
          <path d="M20,30 q0,-10 10,-10" stroke="white" stroke-width="1" stroke-dasharray="2,2" fill="none" />
          <path d="M20,10 q0,10 10,10" stroke="white" stroke-width="1" stroke-dasharray="2,2" fill="none" />
          <path d="M30,20  h10" stroke="white" stroke-width="1" stroke-dasharray="2,2" fill="none" />
          <path d="M20,2 v56" stroke="white" stroke-width="1" stroke-dasharray="2,2" fill="none" />
          <g transform="translate(35,40)">
            <rect x="0" y="0" width="20" height="20" fill="white" stroke="black" stroke-width="2" />
            <g transform="translate(10,10)">
              <g transform="scale(1,1)">
                <path d="M-6,-3 v-4 h4" stroke="black" stroke-width="2" fill="none" />
              </g>
              <g transform="scale(-1,1)">
                <path d="M-6,-3 v-4 h4" stroke="black" stroke-width="2" fill="none" />
              </g>
              <g transform="scale(1,-1)">
                <path d="M-6,-3 v-4 h4" stroke="black" stroke-width="2" fill="none" />
              </g>
              <g transform="scale(-1,-1)">
                <path d="M-6,-3 v-4 h4" stroke="black" stroke-width="2" fill="none" />
              </g>
            </g>
          </g>
        </g>
      </g>
    </g>
  </g>
  <g transform="translate(0,120)">
    <path d="M10,0 v60 h20 v-60 Z" stroke="none" fill="black" />
    <path d="M12,0 v60" stroke="white" stroke-width="1" fill="none" />
    <path d="M28,0 v60" stroke="white" stroke-width="1" fill="none" />
    <path d="M20,-2 v64" stroke="white" stroke-width="1" stroke-dasharray="2,2" fill="none" />
    <g transform="translate(45,35)">
      <rect x="-10" y="-30" width="20" height="50" fill="white" stroke="black" stroke-width="3" />
      <rect x="-10" y="-30" width="20" height="10" fill="white" stroke="black" stroke-width="3" />
      <path d="M-15,-5 l5,-5 h20 l5,5 v10 l-5,5 h-20 l-5,-5 Z" fill="white" stroke="black" stroke-width="3" />
      <g transform="scale(1,1)">
        <path d="M3,-8 q0,10 10,10" fill="black" stroke="none" />
        <line x1="8" x2="11" y1="-3" y2="-6" stroke="black" stroke-width="2" />
      </g>
      <g transform="scale(-1,-1)">
        <path d="M3,-8 q0,10 10,10" fill="black" stroke="none" />
        <line x1="8" x2="11" y1="-3" y2="-6" stroke="black" stroke-width="2" />
      </g>
      <circle cx="0" cy="0" r="3" fill="black" stroke="none" />
      <line x1="-8" x2="8" y1="-8" y2="8" stroke="black" stroke-width="2" />
    </g>
  </g>
  <g transform="translate(0,180)">
    <g transform="translate(30,30)">
      <g transform="scale(1,-1)">
        <g transform="translate(-30,-30)">
          <path d="M10,0 h20 v10 h10 l10,20 v10 h-10 v-10 h-10 v30 h-20 Z" stroke="none" fill="black" />
          <path d="M12,60 v-60" stroke="white" stroke-width="1" fill="none" />
          <path d="M28,60 v-60" stroke="white" stroke-width="1" fill="none" />
          <path d="M20,30 q0,-10 10,-10" stroke="white" stroke-width="1" stroke-dasharray="2,2" fill="none" />
          <path d="M20,10 q0,10 10,10" stroke="white" stroke-width="1" stroke-dasharray="2,2" fill="none" />
          <path d="M30,20  h10" stroke="white" stroke-width="1" stroke-dasharray="2,2" fill="none" />
          <path d="M20,2 v56" stroke="white" stroke-width="1" stroke-dasharray="2,2" fill="none" />
          <g transform="translate(35,40)">
            <rect x="0" y="0" width="20" height="20" fill="white" stroke="black" stroke-width="2" />
            <g transform="translate(10,10)">
              <g transform="scale(1,1)">
                <path d="M-6,-3 v-4 h4" stroke="black" stroke-width="2" fill="none" />
              </g>
              <g transform="scale(-1,1)">
                <path d="M-6,-3 v-4 h4" stroke="black" stroke-width="2" fill="none" />
              </g>
              <g transform="scale(1,-1)">
                <path d="M-6,-3 v-4 h4" stroke="black" stroke-width="2" fill="none" />
              </g>
              <g transform="scale(-1,-1)">
                <path d="M-6,-3 v-4 h4" stroke="black" stroke-width="2" fill="none" />
              </g>
            </g>
          </g>
        </g>
      </g>
    </g>
  </g>
  <g transform="translate(0,240)">
    <g transform="translate(30,30)">
      <g transform="scale(1,-1)">
        <g transform="translate(-30,-30)">
          <path d="M10,60 v-43 q10,-5 20,0 v43 Z" stroke="none" fill="black" />
          <path d="M12,60 v-40" stroke="white" stroke-width="1" fill="none" />
          <path d="M28,60 v-40" stroke="white" stroke-width="1" fill="none" />
          <path d="M20,60 v-43" stroke="white" stroke-width="1" stroke-dasharray="2,2" fill="none" />
        </g>
      </g>
    </g>
  </g>
</svg>
