<svg width="60" height="180">
  <g transform="translate(0,0)">
    <path d="M15,60 v-40 a15 15 0 0 1 30,0 v40 Z" fill="rgb(50,50,50)" stroke="black" stroke-width="5" stroke-linejoin="round" />
  </g>
  <g transform="translate(0,60)">
    <rect x="15" y="0" width="30" height="60" fill="rgb(50,50,50)" stroke="black" stroke-width="5" stroke-linejoin="round" />
  </g>
  <g transform="translate(0,120)">
    <rect x="15" y="40" width="30" height="10" fill="black" stroke="none" />
    <path d="M15,0 l10,50 q5,10 10,0 l10,-50 Z" fill="rgb(50,50,50)" stroke="black" stroke-width="5" stroke-linejoin="round" />
  </g>

  <g transform="translate(0,0)">
    <path d="M20,60 a10 10 0 0 1 20,0" fill="rgb(125,125,125)" stroke="black" stroke-width="3" />
  </g>
  <g transform="translate(0,60)">
    <rect x="20" y="0" width="20" height="60" fill="rgb(125,125,125)" stroke="black" stroke-width="3" stroke-linejoin="round" />
    <path d="M30,20 h-2 q-5,0 -5,5 v15 q0,5 5,5 h4 q5,0 5,-5 v-15 q0,-5 -5,-5 Z" fill="rgb(50,50,50)" stroke="black" stroke-width="2" stroke-linejoin="round" />
    <path d="M30,27 h-1 q-4,0 -4,4 v8 q0,4 4,4 h2 q4,0 4,-4 v-8 q0,-4 -4,-4 Z" fill="rgb(125,125,125)" stroke="black" stroke-width="1" stroke-linejoin="round" />
    <circle cx="30" cy="37" r="4" fill="rgb(50,50,50)" stroke="black" stroke-width="1" />
    <rect x="27" y="20" width="6" height="8" stroke="black" stroke-width="1" fill="white" />
    <line x1="27" x2="33" y1="22" y2="22" stroke="black" stroke-width="1" />
    <line x1="27" x2="33" y1="24" y2="24" stroke="black" stroke-width="1" />
    <line x1="27" x2="33" y1="26" y2="26" stroke="black" stroke-width="1" />
  </g>
  <g transform="translate(0,120)">
    <path d="M20,00 a10 10 0 0 0 20,0" fill="rgb(125,125,125)" stroke="black" stroke-width="3" />
  </g>
</svg>
